General
Complete name                            : BIONICLE_3_Web_of_Shadows_2005_NTSC_DVD9.iso
Format                                   : DVD-Video
Format profile                           : UDF / ISO 9660
File size                                : 7.34 GiB (7,881,216,000 bytes)
Duration                                 : 1 h 15 min 52 s
Overall bit rate mode                    : Variable
Overall bit rate                         : 13,851 kbps
VTS_01_0.IFO Size                        : 84.0 KiB
VTS_01_1.VOB Size (Main Movie)           : 4.12 GiB (4,423,737,344 bytes)
Label                                    : BIONICLE_3_WEB_OF_SHADOWS
Country of origin / Release Region       : United States / Region 1 (NTSC)
Original Release Date                    : 2005-10-11
Publisher                                : Buena Vista Home Entertainment / Miramax Home Entertainment

Video
ID                                       : 224 (0xE0)
Format                                   : MPEG Video
Format version                           : Version 2
Format profile                           : Main@Main
Format settings                          : BVOP
Format settings, Matrix                  : Custom
Format settings, GOP                     : M=3, N=15
Duration                                 : 1 h 15 min 52 s
Bit rate mode                            : Variable
Bit rate                                 : 5,100 kbps
Maximum bit rate                         : 8,200 kbps
Width                                    : 720 pixels
Height                                   : 480 pixels
Display aspect ratio                     : 16:9
Frame rate                               : 29.970 (30000/1001) FPS
Standard                                 : NTSC
Color space                              : YUV
Chroma subsampling                       : 4:2:0
Bit depth                                : 8 bits
Scan type                                : Interlaced
Scan order                               : Top Field First
Compression mode                         : Lossy
Bits/(Pixel*Frame)                       : 0.492
Time code first frame                    : 00:00:00:00
Time code source                         : Group of pictures header
Stream size                              : 3.12 GiB (76%)

Audio
ID                                       : 128 (0x80)
Format                                   : AC-3
Format/Info                              : Audio Coding 3
Commercial name                          : Dolby Digital
Muxing mode                              : DVD-Video
Duration                                 : 1 h 15 min 52 s
Bit rate mode                            : Constant
Bit rate                                 : 448 kbps
Channel(s)                               : 6 channels
Channel layout                           : L R C LFE Ls Rs
Sampling rate                            : 48.0 kHz
Frame rate                               : 31.250 FPS (1536 SPF)
Bit depth                                : 16 bits
Compression mode                         : Lossy
Stream size                              : 243 MiB (6%)
Language                                 : English
Service kind                             : Complete Main

Subtitle
ID                                       : 32 (0x20)
Format                                   : RLE
Format/Info                              : Run-length encoding
Muxing mode                              : DVD-Video
Duration                                 : 1 h 15 min 02 s
Delay relative to video                  : 1 s 400 ms
Language                                 : English (SDH / Captions)

Menu
Format                                   : DVD-Video
Duration                                 : 1 h 15 min 52 s
List                                     : VTS_01_0.VOB (Interactive DVD Menu with Music)
Language                                 : English
Features Included                        : - BIONICLE Music Video (Nathan Furst Soundtrack Highlights)
- Explorer Featurette (Metru Nui Locations)
- Behind-the-Scenes Featurette
- Web of Shadows Challenge (Interactive DVD Game)
- DVD-ROM Extras